<svg width="150" height="150" viewBox="0 0 150 150" fill="none" xmlns="http://www.w3.org/2000/svg">
<rect opacity="0.7" width="150" height="150" fill="#0B0D17"/>
<rect x="5" y="5" width="140" height="125" rx="20" fill="white"/>
<path d="M21.4648 98.0664L19.3789 100.234V106H17.1289V88.9375H19.3789V97.375L26.9609 88.9375H29.6797L22.9648 96.4727L30.207 106H27.5117L21.4648 98.0664ZM35.8555 100.621L36.1836 102.871L36.6641 100.844L40.0391 88.9375H41.9375L45.2305 100.844L45.6992 102.906L46.0625 100.609L48.7109 88.9375H50.9727L46.8359 106H44.7852L41.2695 93.5664L41 92.2656L40.7305 93.5664L37.0859 106H35.0352L30.9102 88.9375H33.1602L35.8555 100.621ZM63.6055 99.6367H57.8867V97.8672H63.6055V99.6367ZM85.1328 106H82.8711V98.1133H74.2695V106H72.0195V88.9375H74.2695V96.2734H82.8711V88.9375H85.1328V106ZM102.254 98.0195C102.254 99.6914 101.973 101.152 101.41 102.402C100.848 103.645 100.051 104.594 99.0195 105.25C97.9883 105.906 96.7852 106.234 95.4102 106.234C94.0664 106.234 92.875 105.906 91.8359 105.25C90.7969 104.586 89.9883 103.645 89.4102 102.426C88.8398 101.199 88.5469 99.7812 88.5312 98.1719V96.9414C88.5312 95.3008 88.8164 93.8516 89.3867 92.5938C89.957 91.3359 90.7617 90.375 91.8008 89.7109C92.8477 89.0391 94.043 88.7031 95.3867 88.7031C96.7539 88.7031 97.957 89.0352 98.9961 89.6992C100.043 90.3555 100.848 91.3125 101.41 92.5703C101.973 93.8203 102.254 95.2773 102.254 96.9414V98.0195ZM100.016 96.918C100.016 94.8945 99.6094 93.3438 98.7969 92.2656C97.9844 91.1797 96.8477 90.6367 95.3867 90.6367C93.9648 90.6367 92.8438 91.1797 92.0234 92.2656C91.2109 93.3438 90.793 94.8438 90.7695 96.7656V98.0195C90.7695 99.9805 91.1797 101.523 92 102.648C92.8281 103.766 93.9648 104.324 95.4102 104.324C96.8633 104.324 97.9883 103.797 98.7852 102.742C99.582 101.68 99.9922 100.16 100.016 98.1836V96.918ZM117.641 88.9375V100.539C117.633 102.148 117.125 103.465 116.117 104.488C115.117 105.512 113.758 106.086 112.039 106.211L111.441 106.234C109.574 106.234 108.086 105.73 106.977 104.723C105.867 103.715 105.305 102.328 105.289 100.562V88.9375H107.516V100.492C107.516 101.727 107.855 102.688 108.535 103.375C109.215 104.055 110.184 104.395 111.441 104.395C112.715 104.395 113.688 104.055 114.359 103.375C115.039 102.695 115.379 101.738 115.379 100.504V88.9375H117.641ZM127.449 99.0977H123.441V106H121.18V88.9375H126.828C128.75 88.9375 130.227 89.375 131.258 90.25C132.297 91.125 132.816 92.3984 132.816 94.0703C132.816 95.1328 132.527 96.0586 131.949 96.8477C131.379 97.6367 130.582 98.2266 129.559 98.6172L133.566 105.859V106H131.152L127.449 99.0977ZM123.441 97.2578H126.898C128.016 97.2578 128.902 96.9688 129.559 96.3906C130.223 95.8125 130.555 95.0391 130.555 94.0703C130.555 93.0156 130.238 92.207 129.605 91.6445C128.98 91.082 128.074 90.7969 126.887 90.7891H123.441V97.2578Z" fill="#0B0D17"/>
<rect x="20" y="60" width="110" height="11" rx="5" fill="#0B0D17"/>
<path d="M21.7526 65C22.4144 64.9046 23.2762 64.8107 24.3261 64.7196C27.0715 64.4814 31.0524 64.2663 35.981 64.0855C45.8357 63.7238 59.4543 63.5 74.5 63.5C89.5457 63.5 103.164 63.7238 113.019 64.0855C117.948 64.2663 121.928 64.4814 124.674 64.7196C125.724 64.8107 126.586 64.9046 127.247 65C126.586 65.0954 125.724 65.1893 124.674 65.2804C121.928 65.5186 117.948 65.7337 113.019 65.9145C103.164 66.2762 89.5457 66.5 74.5 66.5C59.4543 66.5 45.8357 66.2762 35.981 65.9145C31.0524 65.7337 27.0715 65.5186 24.3261 65.2804C23.2762 65.1893 22.4144 65.0954 21.7526 65Z" fill="#ADB4F0" stroke="#0B0D17"/>
<line x1="77" y1="56" x2="77" y2="64" stroke="#FE746B" stroke-width="4"/>
<rect x="19" y="20" width="111" height="25" fill="#0B0D17"/>
<rect x="22" y="21.9231" width="15.2453" height="21.1538" fill="#0B0D17"/>
<path d="M28.0368 32.088C28.0368 32.904 28.0608 33.664 28.1088 34.368C28.1728 35.072 28.2448 35.68 28.3248 36.192C28.4048 36.8 28.5088 37.36 28.6367 37.872C28.7328 37.904 28.8368 37.936 28.9488 37.968C29.0448 38 29.1568 38.024 29.2848 38.04C29.4288 38.056 29.5728 38.064 29.7168 38.064C29.8608 38.064 29.9968 38.056 30.1248 38.04C30.2688 38.024 30.3888 38 30.4848 37.968C30.5968 37.936 30.7008 37.904 30.7968 37.872C30.9088 37.344 31.0128 36.768 31.1088 36.144C31.1888 35.616 31.2608 35.008 31.3248 34.32C31.3888 33.616 31.4208 32.872 31.4208 32.088C31.4208 31.272 31.3888 30.52 31.3248 29.832C31.2608 29.128 31.1888 28.52 31.1088 28.008C31.0128 27.4 30.9088 26.84 30.7968 26.328C30.7008 26.296 30.5968 26.264 30.4848 26.232C30.3888 26.2 30.2688 26.176 30.1248 26.16C29.9968 26.144 29.8608 26.136 29.7168 26.136C29.5728 26.136 29.4288 26.144 29.2848 26.16C29.1568 26.176 29.0448 26.2 28.9488 26.232C28.8368 26.264 28.7328 26.296 28.6367 26.328C28.5088 26.856 28.4048 27.432 28.3248 28.056C28.2448 28.584 28.1728 29.2 28.1088 29.904C28.0608 30.592 28.0368 31.32 28.0368 32.088ZM23.6688 32.112C23.6688 30.816 23.7808 29.72 24.0048 28.824C24.2288 27.912 24.5888 27.168 25.0848 26.592C25.5808 26.016 26.2048 25.6 26.9568 25.344C27.7248 25.072 28.6528 24.936 29.7408 24.936C30.8128 24.936 31.7328 25.072 32.5008 25.344C33.2688 25.6 33.8928 26.016 34.3728 26.592C34.8688 27.168 35.2288 27.912 35.4528 28.824C35.6768 29.72 35.7888 30.816 35.7888 32.112C35.7888 33.392 35.6768 34.488 35.4528 35.4C35.2288 36.296 34.8688 37.032 34.3728 37.608C33.8928 38.184 33.2688 38.608 32.5008 38.88C31.7328 39.136 30.8128 39.264 29.7408 39.264C28.6528 39.264 27.7248 39.136 26.9568 38.88C26.2048 38.608 25.5808 38.184 25.0848 37.608C24.5888 37.032 24.2288 36.296 24.0048 35.4C23.7808 34.488 23.6688 33.392 23.6688 32.112Z" fill="white"/>
<rect x="40" y="21.9231" width="15.2453" height="21.1538" fill="#0B0D17"/>
<path d="M46.0368 32.088C46.0368 32.904 46.0608 33.664 46.1088 34.368C46.1728 35.072 46.2448 35.68 46.3248 36.192C46.4048 36.8 46.5088 37.36 46.6367 37.872C46.7328 37.904 46.8368 37.936 46.9488 37.968C47.0448 38 47.1568 38.024 47.2848 38.04C47.4288 38.056 47.5728 38.064 47.7168 38.064C47.8608 38.064 47.9968 38.056 48.1248 38.04C48.2688 38.024 48.3888 38 48.4848 37.968C48.5968 37.936 48.7008 37.904 48.7968 37.872C48.9088 37.344 49.0128 36.768 49.1088 36.144C49.1888 35.616 49.2608 35.008 49.3248 34.32C49.3888 33.616 49.4208 32.872 49.4208 32.088C49.4208 31.272 49.3888 30.52 49.3248 29.832C49.2608 29.128 49.1888 28.52 49.1088 28.008C49.0128 27.4 48.9088 26.84 48.7968 26.328C48.7008 26.296 48.5968 26.264 48.4848 26.232C48.3888 26.2 48.2688 26.176 48.1248 26.16C47.9968 26.144 47.8608 26.136 47.7168 26.136C47.5728 26.136 47.4288 26.144 47.2848 26.16C47.1568 26.176 47.0448 26.2 46.9488 26.232C46.8368 26.264 46.7328 26.296 46.6367 26.328C46.5088 26.856 46.4048 27.432 46.3248 28.056C46.2448 28.584 46.1728 29.2 46.1088 29.904C46.0608 30.592 46.0368 31.32 46.0368 32.088ZM41.6688 32.112C41.6688 30.816 41.7808 29.72 42.0048 28.824C42.2288 27.912 42.5888 27.168 43.0848 26.592C43.5808 26.016 44.2048 25.6 44.9568 25.344C45.7248 25.072 46.6528 24.936 47.7408 24.936C48.8128 24.936 49.7328 25.072 50.5008 25.344C51.2688 25.6 51.8928 26.016 52.3728 26.592C52.8688 27.168 53.2288 27.912 53.4528 28.824C53.6768 29.72 53.7888 30.816 53.7888 32.112C53.7888 33.392 53.6768 34.488 53.4528 35.4C53.2288 36.296 52.8688 37.032 52.3728 37.608C51.8928 38.184 51.2688 38.608 50.5008 38.88C49.7328 39.136 48.8128 39.264 47.7408 39.264C46.6528 39.264 45.7248 39.136 44.9568 38.88C44.2048 38.608 43.5808 38.184 43.0848 37.608C42.5888 37.032 42.2288 36.296 42.0048 35.4C41.7808 34.488 41.6688 33.392 41.6688 32.112Z" fill="white"/>
<rect x="58" y="21.9231" width="15.2453" height="21.1538" fill="#0B0D17"/>
<path d="M64.0368 32.088C64.0368 32.904 64.0608 33.664 64.1088 34.368C64.1728 35.072 64.2448 35.68 64.3248 36.192C64.4048 36.8 64.5088 37.36 64.6367 37.872C64.7328 37.904 64.8368 37.936 64.9488 37.968C65.0448 38 65.1568 38.024 65.2848 38.04C65.4288 38.056 65.5728 38.064 65.7168 38.064C65.8608 38.064 65.9968 38.056 66.1248 38.04C66.2688 38.024 66.3888 38 66.4848 37.968C66.5968 37.936 66.7008 37.904 66.7968 37.872C66.9088 37.344 67.0128 36.768 67.1088 36.144C67.1888 35.616 67.2608 35.008 67.3248 34.32C67.3888 33.616 67.4208 32.872 67.4208 32.088C67.4208 31.272 67.3888 30.52 67.3248 29.832C67.2608 29.128 67.1888 28.52 67.1088 28.008C67.0128 27.4 66.9088 26.84 66.7968 26.328C66.7008 26.296 66.5968 26.264 66.4848 26.232C66.3888 26.2 66.2688 26.176 66.1248 26.16C65.9968 26.144 65.8608 26.136 65.7168 26.136C65.5728 26.136 65.4288 26.144 65.2848 26.16C65.1568 26.176 65.0448 26.2 64.9488 26.232C64.8368 26.264 64.7328 26.296 64.6367 26.328C64.5088 26.856 64.4048 27.432 64.3248 28.056C64.2448 28.584 64.1728 29.2 64.1088 29.904C64.0608 30.592 64.0368 31.32 64.0368 32.088ZM59.6688 32.112C59.6688 30.816 59.7808 29.72 60.0048 28.824C60.2288 27.912 60.5888 27.168 61.0848 26.592C61.5808 26.016 62.2048 25.6 62.9568 25.344C63.7248 25.072 64.6528 24.936 65.7408 24.936C66.8128 24.936 67.7328 25.072 68.5008 25.344C69.2688 25.6 69.8928 26.016 70.3728 26.592C70.8688 27.168 71.2288 27.912 71.4528 28.824C71.6768 29.72 71.7888 30.816 71.7888 32.112C71.7888 33.392 71.6768 34.488 71.4528 35.4C71.2288 36.296 70.8688 37.032 70.3728 37.608C69.8928 38.184 69.2688 38.608 68.5008 38.88C67.7328 39.136 66.8128 39.264 65.7408 39.264C64.6528 39.264 63.7248 39.136 62.9568 38.88C62.2048 38.608 61.5808 38.184 61.0848 37.608C60.5888 37.032 60.2288 36.296 60.0048 35.4C59.7808 34.488 59.6688 33.392 59.6688 32.112Z" fill="white"/>
<rect x="76" y="21.9231" width="15.2453" height="21.1538" fill="#0B0D17"/>
<path d="M82.0368 32.088C82.0368 32.904 82.0608 33.664 82.1088 34.368C82.1728 35.072 82.2448 35.68 82.3248 36.192C82.4048 36.8 82.5088 37.36 82.6367 37.872C82.7328 37.904 82.8368 37.936 82.9488 37.968C83.0448 38 83.1568 38.024 83.2848 38.04C83.4288 38.056 83.5728 38.064 83.7168 38.064C83.8608 38.064 83.9968 38.056 84.1248 38.04C84.2688 38.024 84.3888 38 84.4848 37.968C84.5968 37.936 84.7008 37.904 84.7968 37.872C84.9088 37.344 85.0128 36.768 85.1088 36.144C85.1888 35.616 85.2608 35.008 85.3248 34.32C85.3888 33.616 85.4208 32.872 85.4208 32.088C85.4208 31.272 85.3888 30.52 85.3248 29.832C85.2608 29.128 85.1888 28.52 85.1088 28.008C85.0128 27.4 84.9088 26.84 84.7968 26.328C84.7008 26.296 84.5968 26.264 84.4848 26.232C84.3888 26.2 84.2688 26.176 84.1248 26.16C83.9968 26.144 83.8608 26.136 83.7168 26.136C83.5728 26.136 83.4288 26.144 83.2848 26.16C83.1568 26.176 83.0448 26.2 82.9488 26.232C82.8368 26.264 82.7328 26.296 82.6367 26.328C82.5088 26.856 82.4048 27.432 82.3248 28.056C82.2448 28.584 82.1728 29.2 82.1088 29.904C82.0608 30.592 82.0368 31.32 82.0368 32.088ZM77.6688 32.112C77.6688 30.816 77.7808 29.72 78.0048 28.824C78.2288 27.912 78.5888 27.168 79.0848 26.592C79.5808 26.016 80.2048 25.6 80.9568 25.344C81.7248 25.072 82.6528 24.936 83.7408 24.936C84.8128 24.936 85.7328 25.072 86.5008 25.344C87.2688 25.6 87.8928 26.016 88.3728 26.592C88.8688 27.168 89.2288 27.912 89.4528 28.824C89.6768 29.72 89.7888 30.816 89.7888 32.112C89.7888 33.392 89.6768 34.488 89.4528 35.4C89.2288 36.296 88.8688 37.032 88.3728 37.608C87.8928 38.184 87.2688 38.608 86.5008 38.88C85.7328 39.136 84.8128 39.264 83.7408 39.264C82.6528 39.264 81.7248 39.136 80.9568 38.88C80.2048 38.608 79.5808 38.184 79.0848 37.608C78.5888 37.032 78.2288 36.296 78.0048 35.4C77.7808 34.488 77.6688 33.392 77.6688 32.112Z" fill="white"/>
<rect x="94" y="21.9231" width="15.2453" height="21.1538" fill="#0B0D17"/>
<path d="M100.037 32.088C100.037 32.904 100.061 33.664 100.109 34.368C100.173 35.072 100.245 35.68 100.325 36.192C100.405 36.8 100.509 37.36 100.637 37.872C100.733 37.904 100.837 37.936 100.949 37.968C101.045 38 101.157 38.024 101.285 38.04C101.429 38.056 101.573 38.064 101.717 38.064C101.861 38.064 101.997 38.056 102.125 38.04C102.269 38.024 102.389 38 102.485 37.968C102.597 37.936 102.701 37.904 102.797 37.872C102.909 37.344 103.013 36.768 103.109 36.144C103.189 35.616 103.261 35.008 103.325 34.32C103.389 33.616 103.421 32.872 103.421 32.088C103.421 31.272 103.389 30.52 103.325 29.832C103.261 29.128 103.189 28.52 103.109 28.008C103.013 27.4 102.909 26.84 102.797 26.328C102.701 26.296 102.597 26.264 102.485 26.232C102.389 26.2 102.269 26.176 102.125 26.16C101.997 26.144 101.861 26.136 101.717 26.136C101.573 26.136 101.429 26.144 101.285 26.16C101.157 26.176 101.045 26.2 100.949 26.232C100.837 26.264 100.733 26.296 100.637 26.328C100.509 26.856 100.405 27.432 100.325 28.056C100.245 28.584 100.173 29.2 100.109 29.904C100.061 30.592 100.037 31.32 100.037 32.088ZM95.6688 32.112C95.6688 30.816 95.7808 29.72 96.0048 28.824C96.2288 27.912 96.5888 27.168 97.0848 26.592C97.5808 26.016 98.2048 25.6 98.9568 25.344C99.7248 25.072 100.653 24.936 101.741 24.936C102.813 24.936 103.733 25.072 104.501 25.344C105.269 25.6 105.893 26.016 106.373 26.592C106.869 27.168 107.229 27.912 107.453 28.824C107.677 29.72 107.789 30.816 107.789 32.112C107.789 33.392 107.677 34.488 107.453 35.4C107.229 36.296 106.869 37.032 106.373 37.608C105.893 38.184 105.269 38.608 104.501 38.88C103.733 39.136 102.813 39.264 101.741 39.264C100.653 39.264 99.7248 39.136 98.9568 38.88C98.2048 38.608 97.5808 38.184 97.0848 37.608C96.5888 37.032 96.2288 36.296 96.0048 35.4C95.7808 34.488 95.6688 33.392 95.6688 32.112Z" fill="white"/>
<rect x="112" y="21.9231" width="15.2453" height="21.1538" fill="#FE746B"/>
<path d="M114.938 32.4453L115.805 23.9375H124.547V25.9414H117.645L117.129 30.5938C117.965 30.1016 118.914 29.8555 119.977 29.8555C121.531 29.8555 122.766 30.3711 123.68 31.4023C124.594 32.4258 125.051 33.8125 125.051 35.5625C125.051 37.3203 124.574 38.707 123.621 39.7227C122.676 40.7305 121.352 41.2344 119.648 41.2344C118.141 41.2344 116.91 40.8164 115.957 39.9805C115.004 39.1445 114.461 37.9883 114.328 36.5117H116.379C116.512 37.4883 116.859 38.2266 117.422 38.7266C117.984 39.2188 118.727 39.4648 119.648 39.4648C120.656 39.4648 121.445 39.1211 122.016 38.4336C122.594 37.7461 122.883 36.7969 122.883 35.5859C122.883 34.4453 122.57 33.5312 121.945 32.8438C121.328 32.1484 120.504 31.8008 119.473 31.8008C118.527 31.8008 117.785 32.0078 117.246 32.4219L116.672 32.8906L114.938 32.4453Z" fill="white"/>
</svg>
